<?xml version="1.0" encoding="UTF-8"?>
<svg width="700pt" height="700pt" version="1.1" viewBox="0 0 700 700" xmlns="http://www.w3.org/2000/svg" xmlns:xlink="http://www.w3.org/1999/xlink">
 <defs>
  <symbol id="t" overflow="visible">
   <path d="m0.32812-0.015625c-0.023437 0.011719-0.042969 0.015625-0.0625 0.015625h-0.046875c-0.0625 0-0.11719-0.015625-0.15625-0.046875-0.03125-0.03125-0.046875-0.070313-0.046875-0.125 0-0.050781 0.015625-0.09375 0.046875-0.125 0.039062-0.039063 0.09375-0.0625 0.15625-0.0625 0.019531 0 0.035156 0.007813 0.046875 0.015625 0.019531 0 0.039063 0.007812 0.0625 0.015625v0.078125c-0.023437-0.019531-0.042969-0.03125-0.0625-0.03125-0.011719-0.007812-0.027344-0.015625-0.046875-0.015625-0.03125 0-0.058594 0.011719-0.078125 0.03125-0.011719 0.023437-0.015625 0.054687-0.015625 0.09375 0 0.03125 0.003906 0.058594 0.015625 0.078125 0.019531 0.023438 0.046875 0.03125 0.078125 0.03125h0.046875c0.019531-0.0078125 0.039063-0.019531 0.0625-0.03125z"/>
  </symbol>
  <symbol id="c" overflow="visible">
   <path d="m0.23438-0.1875c0-0.007812-0.007813-0.015625-0.015625-0.015625h-0.015625c-0.03125 0-0.054687 0.011719-0.0625 0.03125-0.011719 0.011719-0.015625 0.027344-0.015625 0.046875v0.125h-0.09375v-0.26562h0.09375v0.046875c0.007812-0.019531 0.019531-0.03125 0.03125-0.03125 0.019531-0.007812 0.039062-0.015625 0.0625-0.015625h0.015625z"/>
  </symbol>
  <symbol id="a" overflow="visible">
   <path d="m0.29688-0.14062v0.03125h-0.1875c0 0.023438 0.003906 0.039062 0.015625 0.046875 0.007812 0.011719 0.03125 0.015625 0.0625 0.015625h0.046875c0.019531-0.0078125 0.039063-0.019531 0.0625-0.03125v0.0625c-0.023437 0.011719-0.042969 0.015625-0.0625 0.015625h-0.0625c-0.054687 0-0.09375-0.0078125-0.125-0.03125-0.023438-0.019531-0.03125-0.050781-0.03125-0.09375 0-0.050781 0.0078125-0.085938 0.03125-0.10938 0.03125-0.019531 0.070313-0.03125 0.125-0.03125 0.039063 0 0.070313 0.011719 0.09375 0.03125 0.019531 0.023437 0.03125 0.054687 0.03125 0.09375zm-0.078125-0.015625c0-0.019531-0.007812-0.035156-0.015625-0.046875-0.011719-0.007813-0.023437-0.015625-0.03125-0.015625-0.023437 0-0.039063 0.007812-0.046875 0.015625-0.011719 0.011719-0.015625 0.027344-0.015625 0.046875z"/>
  </symbol>
  <symbol id="f" overflow="visible">
   <path d="m0.15625-0.125c-0.011719 0-0.023438 0.007812-0.03125 0.015625-0.011719 0.011719-0.015625 0.023438-0.015625 0.03125v0.03125h0.03125c0.019531 0 0.035156-0.0039062 0.046875-0.015625 0.007812-0.0078125 0.015625-0.023438 0.015625-0.046875v-0.015625zm0.125-0.03125v0.15625h-0.078125v-0.03125c-0.011719 0.011719-0.027344 0.023438-0.046875 0.03125h-0.046875c-0.023438 0-0.042969-0.0039062-0.0625-0.015625-0.023438-0.0078125-0.03125-0.03125-0.03125-0.0625s0.0078125-0.050781 0.03125-0.0625c0.019531-0.019531 0.054687-0.03125 0.10938-0.03125h0.046875c0-0.019531-0.007813-0.03125-0.015625-0.03125-0.011719-0.007813-0.027344-0.015625-0.046875-0.015625-0.023437 0-0.042969 0.007812-0.0625 0.015625h-0.03125v-0.046875c0.0078125-0.007812 0.023438-0.015625 0.046875-0.015625h0.0625c0.050781 0 0.082031 0.011719 0.09375 0.03125 0.019531 0.011719 0.03125 0.039063 0.03125 0.078125z"/>
  </symbol>
  <symbol id="b" overflow="visible">
   <path d="m0.14062-0.34375v0.078125h0.078125v0.0625h-0.078125v0.10938 0.03125h0.03125 0.046875v0.0625h-0.078125c-0.03125 0-0.058594-0.0039062-0.078125-0.015625-0.011719-0.019531-0.015625-0.046875-0.015625-0.078125v-0.10938h-0.046875v-0.0625h0.046875v-0.078125z"/>
  </symbol>
  <symbol id="e" overflow="visible">
   <path d="m0.21875-0.23438v-0.14062h0.078125v0.375h-0.078125v-0.03125c-0.011719 0.011719-0.027344 0.023438-0.046875 0.03125h-0.03125c-0.042969 0-0.074219-0.0078125-0.09375-0.03125-0.023438-0.019531-0.03125-0.050781-0.03125-0.09375 0-0.050781 0.0078125-0.085938 0.03125-0.10938 0.019531-0.019531 0.050781-0.03125 0.09375-0.03125 0.007813 0 0.019531 0.007813 0.03125 0.015625 0.019531 0 0.035156 0.007812 0.046875 0.015625zm-0.046875 0.1875c0.007813 0 0.019531-0.0039062 0.03125-0.015625 0.007813-0.019531 0.015625-0.039062 0.015625-0.0625 0-0.03125-0.007812-0.050781-0.015625-0.0625-0.011719-0.019531-0.023437-0.03125-0.03125-0.03125-0.023437 0-0.039063 0.011719-0.046875 0.03125-0.011719 0.011719-0.015625 0.03125-0.015625 0.0625 0 0.023438 0.003906 0.042969 0.015625 0.0625 0.007812 0.011719 0.023438 0.015625 0.046875 0.015625z"/>
  </symbol>
  <symbol id="j" overflow="visible">
   <path d="m0.1875-0.046875c0.019531 0 0.03125-0.0039062 0.03125-0.015625 0.007812-0.019531 0.015625-0.039062 0.015625-0.0625 0-0.03125-0.007813-0.050781-0.015625-0.0625 0-0.019531-0.011719-0.03125-0.03125-0.03125-0.023438 0-0.039062 0.011719-0.046875 0.03125-0.011719 0.011719-0.015625 0.03125-0.015625 0.0625 0 0.023438 0.003906 0.042969 0.015625 0.0625 0.007813 0.011719 0.023437 0.015625 0.046875 0.015625zm-0.0625-0.1875c0.007812-0.007813 0.019531-0.015625 0.03125-0.015625 0.019531-0.007812 0.039062-0.015625 0.0625-0.015625 0.03125 0 0.054688 0.011719 0.078125 0.03125 0.019531 0.023437 0.03125 0.058594 0.03125 0.10938 0 0.042969-0.011719 0.074219-0.03125 0.09375-0.023437 0.023438-0.046875 0.03125-0.078125 0.03125h-0.0625c-0.011719-0.0078125-0.023438-0.019531-0.03125-0.03125v0.03125h-0.09375v-0.375h0.09375z"/>
  </symbol>
  <symbol id="i" overflow="visible">
   <path d="m0-0.26562h0.09375l0.0625 0.1875 0.0625-0.1875h0.09375l-0.10938 0.28125c-0.011719 0.03125-0.027344 0.050781-0.046875 0.0625-0.011719 0.019531-0.03125 0.03125-0.0625 0.03125h-0.046875v-0.0625h0.03125c0.0078125 0 0.015625-0.0078125 0.015625-0.015625 0.007812 0 0.019531-0.0078125 0.03125-0.015625v-0.015625z"/>
  </symbol>
  <symbol id="h" overflow="visible">
   <path d="m0.25-0.25v0.0625c-0.023438-0.007812-0.042969-0.015625-0.0625-0.015625-0.011719-0.007813-0.027344-0.015625-0.046875-0.015625-0.011719 0-0.023437 0.007812-0.03125 0.015625-0.011719 0-0.015625 0.007813-0.015625 0.015625 0 0 0.0039062 0.007812 0.015625 0.015625h0.03125 0.015625c0.039062 0.011719 0.066406 0.023437 0.078125 0.03125 0.019531 0.011719 0.03125 0.03125 0.03125 0.0625s-0.011719 0.054688-0.03125 0.0625c-0.023437 0.011719-0.054687 0.015625-0.09375 0.015625h-0.0625-0.046875v-0.078125c0.0078125 0.011719 0.023438 0.023438 0.046875 0.03125h0.0625 0.03125c0.007813-0.0078125 0.015625-0.019531 0.015625-0.03125 0-0.0078125-0.007812-0.015625-0.015625-0.015625 0 0-0.011719-0.0039062-0.03125-0.015625h-0.015625c-0.042969 0-0.074219-0.003906-0.09375-0.015625-0.011719-0.019531-0.015625-0.039062-0.015625-0.0625 0-0.03125 0.0078125-0.050781 0.03125-0.0625 0.019531-0.007812 0.050781-0.015625 0.09375-0.015625h0.046875c0.019531 0 0.039062 0.007813 0.0625 0.015625z"/>
  </symbol>
  <symbol id="g" overflow="visible">
   <path d="m0.3125-0.15625v0.15625h-0.09375v-0.125-0.046875-0.015625c0-0.007812-0.007812-0.015625-0.015625-0.015625h-0.015625c-0.023438 0-0.039062 0.007813-0.046875 0.015625-0.011719 0.011719-0.015625 0.03125-0.015625 0.0625v0.125h-0.09375v-0.26562h0.09375v0.03125c0.007812-0.007813 0.019531-0.015625 0.03125-0.015625 0.019531-0.007812 0.039062-0.015625 0.0625-0.015625 0.019531 0 0.039062 0.011719 0.0625 0.03125 0.019531 0.011719 0.03125 0.039063 0.03125 0.078125z"/>
  </symbol>
  <symbol id="s" overflow="visible">
   <path d="m0.03125-0.26562h0.09375v0.26562h-0.09375zm0-0.10938h0.09375v0.078125h-0.09375z"/>
  </symbol>
  <symbol id="r" overflow="visible">
   <path d="m0.21875-0.375v0.0625h-0.046875c-0.011719 0-0.023437 0.007812-0.03125 0.015625v0.015625 0.015625h0.078125v0.0625h-0.078125v0.20312h-0.09375v-0.20312h-0.046875v-0.0625h0.046875v-0.015625c0-0.03125 0.0039062-0.050781 0.015625-0.0625 0.019531-0.019531 0.050781-0.03125 0.09375-0.03125z"/>
  </symbol>
  <symbol id="d" overflow="visible">
   <path d="m0.17188-0.21875c-0.023437 0-0.039063 0.011719-0.046875 0.03125-0.011719 0.011719-0.015625 0.03125-0.015625 0.0625 0 0.023438 0.003906 0.042969 0.015625 0.0625 0.007812 0.011719 0.023438 0.015625 0.046875 0.015625 0.019531 0 0.035156-0.0039062 0.046875-0.015625 0.007812-0.019531 0.015625-0.039062 0.015625-0.0625 0-0.03125-0.007813-0.050781-0.015625-0.0625-0.011719-0.019531-0.027344-0.03125-0.046875-0.03125zm0-0.046875c0.039063 0 0.070313 0.011719 0.09375 0.03125 0.03125 0.023437 0.046875 0.058594 0.046875 0.10938 0 0.042969-0.015625 0.074219-0.046875 0.09375-0.023437 0.023438-0.054687 0.03125-0.09375 0.03125-0.054687 0-0.09375-0.0078125-0.125-0.03125-0.023438-0.019531-0.03125-0.050781-0.03125-0.09375 0-0.050781 0.0078125-0.085938 0.03125-0.10938 0.03125-0.019531 0.070313-0.03125 0.125-0.03125z"/>
  </symbol>
  <symbol id="q" overflow="visible">
   <path d="m0.28125-0.21875c0.007812-0.019531 0.019531-0.03125 0.03125-0.03125 0.019531-0.007812 0.039062-0.015625 0.0625-0.015625 0.03125 0 0.050781 0.011719 0.0625 0.03125 0.019531 0.011719 0.03125 0.039063 0.03125 0.078125v0.15625h-0.09375v-0.14062-0.015625c0-0.019531-0.007812-0.03125-0.015625-0.03125 0-0.007812-0.007813-0.015625-0.015625-0.015625-0.011719 0-0.023438 0.007813-0.03125 0.015625-0.011719 0.011719-0.015625 0.03125-0.015625 0.0625v0.125h-0.078125v-0.14062c0-0.03125-0.007812-0.046875-0.015625-0.046875 0-0.007812-0.011719-0.015625-0.03125-0.015625-0.011719 0-0.023437 0.007813-0.03125 0.015625-0.011719 0.011719-0.015625 0.03125-0.015625 0.0625v0.125h-0.09375v-0.26562h0.09375v0.03125c0.007812-0.007813 0.019531-0.015625 0.03125-0.015625 0.019531-0.007812 0.035156-0.015625 0.046875-0.015625 0.019531 0 0.035156 0.007813 0.046875 0.015625 0.007812 0 0.019531 0.011719 0.03125 0.03125z"/>
  </symbol>
  <symbol id="p" overflow="visible">
   <path d="m0.3125-0.15625v0.15625h-0.09375v-0.125-0.046875-0.015625c0-0.007812-0.007812-0.015625-0.015625-0.015625h-0.015625c-0.023438 0-0.039062 0.007813-0.046875 0.015625-0.011719 0.011719-0.015625 0.03125-0.015625 0.0625v0.125h-0.09375v-0.375h0.09375v0.14062c0.007812-0.007813 0.019531-0.015625 0.03125-0.015625 0.019531-0.007812 0.039062-0.015625 0.0625-0.015625 0.019531 0 0.039062 0.011719 0.0625 0.03125 0.019531 0.011719 0.03125 0.039063 0.03125 0.078125z"/>
  </symbol>
  <symbol id="o" overflow="visible">
   <path d="m0.046875-0.35938h0.09375l0.125 0.25v-0.25h0.09375v0.35938h-0.10938l-0.125-0.25v0.25h-0.078125z"/>
  </symbol>
  <symbol id="n" overflow="visible">
   <path d="m0.03125-0.10938v-0.15625h0.09375v0.015625 0.0625 0.046875 0.046875 0.015625c0.007812 0.011719 0.015625 0.015625 0.015625 0.015625h0.03125c0.007813 0 0.019531-0.0039062 0.03125-0.015625 0.007813-0.0078125 0.015625-0.03125 0.015625-0.0625v-0.125h0.078125v0.26562h-0.078125v-0.03125c-0.011719 0.011719-0.027344 0.023438-0.046875 0.03125h-0.046875c-0.03125 0-0.058594-0.0039062-0.078125-0.015625-0.011719-0.019531-0.015625-0.050781-0.015625-0.09375z"/>
  </symbol>
  <symbol id="m" overflow="visible">
   <path d="m0.046875-0.35938h0.15625c0.039063 0 0.070313 0.011719 0.09375 0.03125 0.019531 0.023437 0.03125 0.054687 0.03125 0.09375 0 0.03125-0.011719 0.058594-0.03125 0.078125-0.023437 0.023438-0.054687 0.03125-0.09375 0.03125h-0.0625v0.125h-0.09375zm0.09375 0.078125v0.09375h0.046875c0.019531 0 0.035156-0.003906 0.046875-0.015625 0.007813-0.007813 0.015625-0.019531 0.015625-0.03125 0-0.019531-0.007812-0.03125-0.015625-0.03125-0.011719-0.007813-0.027344-0.015625-0.046875-0.015625z"/>
  </symbol>
  <symbol id="l" overflow="visible">
   <path d="m0.03125-0.26562h0.09375v0.26562c0 0.03125-0.011719 0.054688-0.03125 0.078125-0.011719 0.019531-0.039062 0.03125-0.078125 0.03125h-0.03125v-0.0625h0.015625c0.0078125 0 0.015625-0.0078125 0.015625-0.015625 0.0078125 0 0.015625-0.011719 0.015625-0.03125zm0-0.10938h0.09375v0.078125h-0.09375z"/>
  </symbol>
  <symbol id="k" overflow="visible">
   <path d="m0.25-0.25v0.0625c-0.011719-0.007812-0.023438-0.015625-0.03125-0.015625-0.011719-0.007813-0.023438-0.015625-0.03125-0.015625-0.023438 0-0.042969 0.011719-0.0625 0.03125-0.011719 0.011719-0.015625 0.03125-0.015625 0.0625 0 0.023438 0.003906 0.042969 0.015625 0.0625 0.019531 0.011719 0.039062 0.015625 0.0625 0.015625h0.03125c0.019531-0.0078125 0.03125-0.019531 0.03125-0.03125v0.078125h-0.03125-0.046875c-0.054687 0-0.09375-0.0078125-0.125-0.03125-0.023438-0.019531-0.03125-0.050781-0.03125-0.09375 0-0.050781 0.0078125-0.085938 0.03125-0.10938 0.03125-0.019531 0.070313-0.03125 0.125-0.03125h0.046875c0.007812 0 0.019531 0.007813 0.03125 0.015625z"/>
  </symbol>
 </defs>
 <g>
  <path d="m63.223 203v-56.145c-21.043 9.4062-42.18 18.715-63.223 28.121 21.043 9.3086 42.18 18.617 63.223 28.023z"/>
  <path d="m79.414 139.78v70.398c19.684 8.6289 39.27 17.355 58.859 26.082v-24.145c0-20.75 25.016-38.496 65.453-50.52 81.062-24.145 211.48-24.145 292.55 0 40.434 12.023 65.453 29.77 65.453 50.52v24.145c46.059-20.461 92.215-40.918 138.27-61.281-116.65-51.781-233.3-103.46-349.95-155.14-90.277 39.949-180.45 79.898-270.63 119.95z"/>
  <path d="m208.29 177.01c-33.258 9.8906-53.816 22.398-53.816 35.102v157.18c42.664-34.324 160.29-35.395 195.58 7.9531 35.199-43.344 152.82-42.277 195.48-7.9531v-157.18c0-12.703-20.559-25.211-53.816-35.102-78.641-23.367-204.79-23.367-283.43 0z"/>
  <path d="m71.367 306.75c3.9766 0 7.4648 4.0742 9.8906 10.57 2.0352 5.5273 3.2969 12.992 3.2969 21.137 0 8.0469-1.2617 15.516-3.2969 21.043-2.4258 6.4961-5.9141 10.57-9.8906 10.57-3.9766 0-7.4648-4.0742-9.793-10.57-2.0352-5.5273-3.2969-12.992-3.2969-21.043 0-8.1445 1.2617-15.613 3.2969-21.137 2.3281-6.4961 5.8164-10.57 9.793-10.57z"/>
  <path d="m75.926 141.33v181.62h-9.0195v-177.64z"/>
  <path d="m62.641 540.05v-152.14l0.19531-2.1328 2.1328-13.965 0.87109-6.0117h11.152l0.87109 6.0117 2.1328 14.156 0.097656 2.1367v159.99h-17.453z"/>
  <use y="549.558594" xlink:href="#t"/>
  <use x="0.355469" y="549.558594" xlink:href="#c"/>
  <use x="0.59375" y="549.558594" xlink:href="#a"/>
  <use x="0.921875" y="549.558594" xlink:href="#f"/>
  <use x="1.25" y="549.558594" xlink:href="#b"/>
  <use x="1.484375" y="549.558594" xlink:href="#a"/>
  <use x="1.8125" y="549.558594" xlink:href="#e"/>
  <use x="2.328125" y="549.558594" xlink:href="#j"/>
  <use x="2.675781" y="549.558594" xlink:href="#i"/>
  <use x="3.160156" y="549.558594" xlink:href="#h"/>
  <use x="3.449219" y="549.558594" xlink:href="#f"/>
  <use x="3.773438" y="549.558594" xlink:href="#g"/>
  <use x="4.121094" y="549.558594" xlink:href="#e"/>
  <use x="4.46875" y="549.558594" xlink:href="#s"/>
  <use y="550.042969" xlink:href="#r"/>
  <use x="0.210938" y="550.042969" xlink:href="#c"/>
  <use x="0.449219" y="550.042969" xlink:href="#d"/>
  <use x="0.78125" y="550.042969" xlink:href="#q"/>
  <use x="1.457031" y="550.042969" xlink:href="#b"/>
  <use x="1.6875" y="550.042969" xlink:href="#p"/>
  <use x="2.035156" y="550.042969" xlink:href="#a"/>
  <use x="2.53125" y="550.042969" xlink:href="#o"/>
  <use x="2.9375" y="550.042969" xlink:href="#d"/>
  <use x="3.269531" y="550.042969" xlink:href="#n"/>
  <use x="3.617188" y="550.042969" xlink:href="#g"/>
  <use x="4.128906" y="550.042969" xlink:href="#m"/>
  <use x="4.484375" y="550.042969" xlink:href="#c"/>
  <use x="4.722656" y="550.042969" xlink:href="#d"/>
  <use x="5.058594" y="550.042969" xlink:href="#l"/>
  <use x="5.222656" y="550.042969" xlink:href="#a"/>
  <use x="5.550781" y="550.042969" xlink:href="#k"/>
  <use x="5.839844" y="550.042969" xlink:href="#b"/>
 </g>
</svg>
